<?xml version="1.0" encoding="utf-8"?>
<!DOCTYPE svg PUBLIC "-//W3C//DTD SVG 1.0//EN" "http://www.w3.org/TR/2001/REC-SVG-20010904/DTD/svg10.dtd">
<svg version="1.0" xmlns="http://www.w3.org/2000/svg" width="773px" height="161px" viewBox="0 0 773 161" preserveAspectRatio="xMidYMid meet">
 <g fill="#fdfdfd">
  <path d="M0 80.50 l0 -80.50 386.50 0 386.50 0 0 80.50 0 80.50 -386.50 0 -386.50 0 0 -80.50z m567.50 53 l0 -21.50 1.80 0 c1.50 0 2.35 0.50 4.95 2.90 4.60 4.20 7.80 5.90 12.85 6.95 3.70 0.75 4.90 0.80 8.25 0.30 7 -1.05 12.05 -3.50 16.90 -8.40 5.35 -5.35 9.05 -13.05 10.30 -21.40 0.50 -3.55 0.50 -5.30 0 -9.20 -1.25 -9.30 -3.95 -15 -10.05 -21.15 -11.55 -11.65 -28.25 -11.75 -39.50 -0.25 -1.75 1.75 -2.55 2.25 -3.85 2.25 l-1.65 0 0 -5 0 -5 -7.25 0 -7.25 0 0 50.50 0 50.50 7.25 0 7.25 0 0 -21.50z m-367.35 11.55 c3.05 -1.50 5.05 -4.55 5.80 -8.80 0.35 -1.95 0.45 -16.70 0.40 -41.55 l-0.10 -38.50 -1.65 -3.30 c-1.35 -2.65 -2.05 -3.45 -3.75 -4.25 -4.40 -2.15 -6.05 -2.25 -28.70 -2.05 -11.85 0.05 -21.70 0 -21.85 -0.15 -0.20 -0.15 -2.05 -2.85 -4.20 -6 -2.15 -3.15 -4.45 -5.95 -5.10 -6.30 -0.95 -0.45 -5.85 -0.65 -19 -0.65 -16.20 0 -17.85 0.10 -19.10 0.90 -1.30 0.85 -4.40 4.70 -7.60 9.50 -0.80 1.20 -1.90 2.40 -2.40 2.65 -0.60 0.35 -8.65 0.50 -22.05 0.40 -16.45 -0.05 -21.60 0.05 -23.30 0.55 -3 0.95 -6.25 4.30 -7 7.25 -0.40 1.65 -0.55 13.65 -0.55 42.20 0 41.65 0 41.60 2.10 45 0.85 1.40 4.85 3.90 6.70 4.20 0.80 0.10 34.65 0.20 75.20 0.15 l73.75 -0.05 2.40 -1.20z m122.05 -24.15 c5.15 -1.40 9.85 -4.05 13.55 -7.70 3.20 -3.10 6.25 -7.35 6.95 -9.55 0.35 -1.10 0.25 -1.15 -3.05 -1.25 -1.85 -0.05 -5.20 -0.05 -7.40 0.05 -3.45 0.10 -4.10 0.30 -4.75 1.20 -1.60 2.35 -5.25 5.25 -7.65 6.10 -3.40 1.25 -10.55 1.25 -14.55 0.05 -2.35 -0.70 -3.55 -1.45 -5.85 -3.75 -2.35 -2.40 -3.05 -3.45 -3.90 -6.25 -0.60 -1.90 -1.05 -4.50 -1.05 -5.85 l0 -2.45 25.65 -0.10 25.60 -0.15 -0.05 -5.75 c-0.05 -8.15 -1.85 -13.65 -6.60 -19.95 -3.85 -5.10 -8.25 -8.10 -15.60 -10.60 -4.35 -1.50 -5.25 -1.65 -10.75 -1.60 -5.10 0 -6.60 0.20 -10.05 1.35 -10.65 3.45 -19.15 12.40 -22.05 23.30 -1.25 4.65 -1.20 15.10 0.05 19.50 2.30 7.95 7.95 15.80 14 19.45 8.75 5.25 18 6.60 27.50 3.95z m-54.20 -5.35 l0 -5.95 -5.60 -0.20 c-6.35 -0.20 -8.40 -0.95 -9.35 -3.35 -0.45 -1.05 -0.65 -6.85 -0.70 -20.75 -0.10 -18.85 -0.10 -19.25 0.90 -19.50 0.55 -0.15 4.10 -0.30 7.90 -0.30 l6.85 0 0 -5.75 0 -5.75 -7.75 0 -7.75 0 0 -8.50 0 -8.50 -7.50 0 -7.50 0 0 8.50 0 8.50 -4.25 0 -4.25 0 0 5.75 0 5.70 4.15 0.15 4.10 0.15 0.25 20.25 c0.30 22 0.40 22.90 3.30 27.05 1.65 2.40 5.05 5.25 7.55 6.30 3 1.25 8.45 2.05 14.30 2.10 l5.35 0.05 0 -5.95z m109 -4.80 l6.25 -10.75 1.80 0 1.85 0 7.05 10.75 7.05 10.75 7.50 0 7.50 0 -0.85 -1.35 c-0.50 -0.80 -5.20 -7.90 -10.50 -15.90 -8.40 -12.60 -9.65 -14.75 -9.65 -16.45 0 -2.05 0 -2.10 15.70 -25.90 2.65 -4 4.80 -7.45 4.80 -7.60 0 -0.15 -3.10 -0.30 -6.85 -0.30 l-6.90 0 -6.40 10.75 c-8.55 14.40 -7.35 14.40 -16.80 0 l-7.05 -10.75 -7.55 0 c-5.90 0 -7.45 0.15 -7.10 0.65 0.20 0.30 4.95 7.50 10.50 15.95 8.35 12.65 10.15 15.70 10.15 17.15 0 1.40 -1.90 4.60 -10.25 17.50 -5.65 8.65 -10.25 15.85 -10.25 16 0 0.15 3.10 0.25 6.90 0.25 l6.85 0 6.25 -10.75z m87 4.80 l0 -5.95 -5.60 -0.20 c-3.20 -0.15 -6.25 -0.50 -7 -0.90 -2.85 -1.35 -2.90 -2.05 -2.80 -23.35 l0.15 -19.40 4.45 0.20 c2.45 0.05 5.85 0 7.60 -0.20 l3.20 -0.35 0 -5.70 0 -5.70 -7.75 0 -7.75 0 0 -8.50 0 -8.50 -7.50 0 -7.50 0 0 8.50 0 8.50 -4.25 0 -4.25 0 0 5.75 0 5.70 4.15 0.15 4.10 0.15 0.30 19.75 c0.20 15.50 0.45 20.30 1.05 22.25 0.95 3.20 2 5.15 3.75 7 4.65 5 9.50 6.55 20.55 6.70 l5.10 0.05 0 -5.95z m189.55 4.35 c0 -1.55 0 -57 -0.05 -63 l0 -2.90 -7.25 0 -7.25 0 0 33.75 0 33.75 7.25 0 7.25 0 0.05 -1.60z m35.50 -9.15 l6.20 -10.75 1.85 0 1.85 0 7.10 10.75 7.05 10.75 7.50 0 7.50 0 -0.90 -1.35 c-0.50 -0.80 -5.25 -7.95 -10.55 -15.95 -8.15 -12.25 -9.65 -14.80 -9.65 -16.35 0 -2.05 -0.35 -1.45 12.65 -21.20 l8.30 -12.65 -7.10 0 -7.10 0.05 -6.25 10.60 c-6.15 10.40 -6.30 10.60 -8 10.75 l-1.80 0.15 -7.05 -10.80 -7.10 -10.75 -7.50 0 -7.55 0 6.65 10.15 c3.65 5.55 8.40 12.70 10.50 15.85 3.15 4.70 3.85 6.10 3.85 7.70 0 1.70 -1.35 4 -10.10 17.45 -5.60 8.55 -10.20 15.70 -10.30 15.95 -0.10 0.20 2.95 0.40 6.80 0.40 l6.95 0 6.20 -10.75z m-152.55 3.50 l0 -5.75 -18.50 0 -18.50 0 0 -1.65 c0 -1.40 0.50 -2.05 3.65 -4.70 18.10 -15.40 27.10 -26.75 30.20 -38.15 1.05 -3.95 1.15 -11.25 0.20 -14.75 -1.95 -6.90 -7.05 -13.40 -12.55 -15.85 -13.10 -5.95 -26.75 -3.95 -35.65 5.25 -4.55 4.70 -6.80 9.35 -7.80 16.15 l-0.35 2.60 4.55 0.35 c2.55 0.20 5.60 0.20 6.85 0 l2.25 -0.35 0.60 -3.30 c1.50 -8.20 6.10 -12.10 14.25 -12.10 4.05 0 8.05 1 9.95 2.50 0.70 0.55 1.90 2.30 2.65 3.90 1.30 2.60 1.40 3.35 1.40 8.60 -0.05 4.90 -0.20 6.30 -1.30 9.30 -2.70 7.45 -8.60 14.90 -20.30 25.60 -4.50 4.10 -16.55 14.45 -19.75 16.90 -1.30 1.05 -1.35 1.25 -1.35 6.15 l0 5.05 29.75 0 29.75 0 0 -5.75z m113.80 -73 c2.90 -1.45 5.20 -4.60 5.20 -7.10 0 -5.40 -5.80 -9.85 -11 -8.55 -4.25 1.10 -7.95 6.15 -6.95 9.55 0.60 2.15 2.40 4.60 4.20 5.70 3.25 1.95 5.20 2.05 8.55 0.40z"/>
  <path d="M582.70 109.50 c-8 -1.70 -13.75 -8.60 -14.80 -17.70 -1 -9.20 1.60 -17.80 6.65 -21.80 4.55 -3.60 6.40 -4.15 13.20 -4.20 5.15 0 6.35 0.15 8.25 1.05 3.20 1.55 5.20 3.15 7.45 6 2.50 3.15 3.90 6.85 4.25 11.65 0.95 11.20 -3.20 20 -11.10 23.75 -2.25 1.05 -3.75 1.40 -7.35 1.55 -2.45 0.10 -5.40 -0.05 -6.55 -0.30z"/>
  <path d="M116.20 132.05 c-13.05 -2.10 -23 -10.85 -27.20 -24.05 -1.05 -3.20 -1.20 -4.75 -1.20 -10.75 0 -5.95 0.15 -7.55 1.15 -10.50 1.50 -4.70 3.70 -8.80 6.60 -12.45 2.85 -3.60 4.55 -5 9.15 -7.50 13.30 -7.15 28.95 -5.80 40.75 3.45 3.70 2.90 6 5.75 8.15 10 3.30 6.45 3.65 8.15 3.65 17 0 7.15 -0.15 8.35 -1.20 11.50 -2.40 7 -5.50 11.45 -10.95 15.90 -6.25 5.10 -12.15 7.25 -20.80 7.55 -3.05 0.15 -6.70 0.05 -8.10 -0.15z m11.95 -10.30 c4.65 -1.20 7.85 -3.15 11.90 -7.20 4.40 -4.40 6.60 -8.45 7.50 -13.85 2.05 -12.60 -8.30 -26 -21.90 -28.30 -13.75 -2.30 -28.30 10.65 -28.20 25.10 0.05 6.30 2.55 11.95 7.55 17.05 6.75 6.85 14.85 9.35 23.15 7.20z"/>
  <path d="M192.75 60.75 c-1.05 -1.05 -1.25 -1.65 -1.25 -4.45 0 -2.70 0.20 -3.50 1.15 -4.60 2.15 -2.45 8.05 -2.15 9.95 0.55 0.20 0.25 0.40 2.10 0.40 4.10 0 3.40 -0.10 3.65 -1.45 4.60 -1.10 0.80 -2.20 1.05 -4.50 1.05 -2.60 0 -3.30 -0.20 -4.30 -1.25z"/>
  <path d="M294.60 82.10 c-0.50 -1.30 0.40 -5.85 1.65 -8.35 1.65 -3.45 4.35 -6.10 7.70 -7.70 2.55 -1.15 3.40 -1.30 8.80 -1.30 5.45 0 6.25 0.10 8.80 1.30 5.45 2.60 8.60 7 9.20 13 l0.35 3.30 -3.15 0.35 c-1.75 0.20 -9.90 0.25 -18.15 0.20 -11.80 -0.10 -15 -0.30 -15.20 -0.80z"/>
 </g>
 <g fill="#333333">
  <path d="M551.50 104.50 l0 -52 8.75 0 8.75 0 0 5.10 0 5.05 2.90 -2.70 c5.85 -5.55 11.05 -7.85 18.85 -8.30 9.20 -0.50 16.80 2.40 23.25 8.85 5.85 5.85 8.40 11 9.80 19.50 3.40 20.85 -7.25 39.60 -24.65 43.25 -8.05 1.70 -16.50 0.40 -22.05 -3.40 -1.85 -1.25 -4.25 -3.20 -5.35 -4.30 -1.05 -1.15 -2.15 -2.05 -2.35 -2.05 -0.20 0 -0.40 9.70 -0.40 21.50 l0 21.50 -8.75 0 -8.75 0 0 -52z m43.75 2.20 c7.35 -3.50 11.70 -12.15 10.90 -21.70 -0.60 -7.25 -5 -13.45 -11.65 -16.60 -3.20 -1.55 -10.25 -1.50 -13.60 0.05 -4.40 2 -7.20 4.70 -9.15 8.75 -6.20 12.95 -0.05 28.15 12.45 30.80 3.20 0.70 8 0.10 11.05 -1.30z"/>
  <path d="M305.25 123.20 c-10.65 -2.35 -18.55 -8.20 -23.05 -16.95 -3.25 -6.30 -3.95 -9.70 -3.95 -18.75 0 -8.80 0.65 -11.95 3.55 -17.90 3.50 -7.10 11.35 -13.80 19.40 -16.45 3.65 -1.20 4.80 -1.30 11.55 -1.35 7.20 0 7.70 0.05 12.25 1.60 7.35 2.55 11.75 5.55 15.60 10.65 5.05 6.70 6.60 11.70 6.60 21.45 l0.05 7.25 -25.60 0.15 c-29.40 0.15 -26.45 -0.50 -24.60 5.40 0.85 2.80 1.55 3.85 3.90 6.25 3.40 3.35 6.60 4.60 12.05 4.55 5.35 -0.05 9.85 -2.45 12.80 -6.80 l1.20 -1.75 9.25 0.10 c10.25 0.05 9.80 -0.15 8.40 3.45 -3.30 8.50 -11.65 15.75 -21.15 18.35 -5.15 1.45 -13.65 1.80 -18.25 0.75z m22.30 -42.10 l1.80 -0.10 -0.40 -2.55 c-0.45 -3 -2.80 -6.80 -5.25 -8.70 -7.80 -5.95 -19.10 -4.55 -24.50 3.05 -1.65 2.35 -3.50 7.25 -3.05 8.05 0.20 0.35 26.10 0.55 31.40 0.25z"/>
  <path d="M252.25 122.25 c-1.90 -0.35 -4.35 -1 -5.40 -1.40 -2.50 -1.05 -5.90 -3.90 -7.55 -6.30 -2.90 -4.15 -3 -5.05 -3.30 -27.05 l-0.25 -20.25 -4 -0.05 -4 -0.10 -0.15 -7.30 -0.15 -7.30 4.25 0 4.30 0 0.10 -8.55 0.15 -8.60 8.25 -0.05 c4.55 -0.05 8.55 0 8.90 0.10 0.45 0.15 0.60 2.35 0.60 8.65 l0 8.45 7.75 0 7.80 0 -0.15 7.35 -0.15 7.35 -7.25 0.10 c-4 0.05 -7.45 0.10 -7.75 0.15 -0.75 0.10 -0.45 35.35 0.30 37.20 0.95 2.30 3.05 3.05 9.35 3.25 l5.60 0.20 0 7.45 0 7.45 -6.85 -0.05 c-3.80 0 -8.45 -0.35 -10.40 -0.70z"/>
  <path d="M353.50 122.80 c0 -0.15 5.05 -8 11.25 -17.50 6.20 -9.55 11.25 -17.40 11.25 -17.55 0 -0.15 -4.40 -6.95 -9.80 -15.10 -5.45 -8.20 -10.60 -16.10 -11.55 -17.55 l-1.70 -2.60 10.05 0 10 0 7.10 10.80 c6.45 9.80 7.15 10.75 7.75 9.90 0.40 -0.50 3.30 -5.40 6.55 -10.80 l5.85 -9.90 9.40 0 c5.15 0 9.35 0.10 9.35 0.25 0 0.15 -2.75 4.50 -6.15 9.65 -3.40 5.15 -8.45 12.90 -11.30 17.20 -2.85 4.35 -5.05 8.20 -4.90 8.55 0.15 0.35 5.25 8.15 11.30 17.35 6.10 9.15 11.20 16.85 11.35 17.10 0.15 0.20 -4.25 0.40 -9.75 0.40 l-10.05 0 -7.05 -10.75 c-3.90 -5.90 -7.20 -10.75 -7.40 -10.75 -0.15 0 -3.10 4.85 -6.55 10.75 l-6.25 10.75 -9.35 0 c-5.20 0 -9.40 -0.10 -9.40 -0.20z"/>
  <path d="M449.25 122.45 c-6.65 -0.95 -12.05 -4.35 -14.60 -9.20 -2.10 -4 -2.30 -5.85 -2.60 -26.20 l-0.30 -19.75 -4 -0.05 -4 -0.10 -0.15 -7.30 -0.15 -7.35 4.25 0 4.30 0 0.10 -8.50 0.15 -8.50 8.75 -0.10 8.75 -0.05 0.15 8.55 0.10 8.60 7.75 0 7.75 0 0 7.50 0 7.45 -7.60 0 -7.65 -0.05 -0.15 17.85 c-0.15 19.55 0 20.40 2.80 21.75 0.75 0.40 3.80 0.75 7 0.90 l5.60 0.20 0 7.45 0 7.45 -6.60 -0.05 c-3.65 -0.05 -8 -0.25 -9.65 -0.50z"/>
  <path d="M637.50 87.75 l0 -35.25 8.90 0 8.95 0 -0.05 35.15 -0.05 35.10 -8.85 0.15 -8.90 0.10 0 -35.25z"/>
  <path d="M665.50 122.80 c0 -0.10 5 -7.80 11.05 -17.10 6.10 -9.30 11.20 -17.20 11.30 -17.60 0.15 -0.35 -1.05 -2.60 -2.65 -5 -1.60 -2.40 -6.80 -10.25 -11.55 -17.45 l-8.60 -13.15 10 0 10 0 7.05 10.75 c3.90 5.90 7.20 10.60 7.45 10.50 0.20 -0.15 3.15 -4.95 6.55 -10.75 l6.15 -10.50 9.40 0 c5.15 0 9.35 0.15 9.35 0.35 0 0.15 -5.10 8.05 -11.30 17.55 l-11.35 17.25 0.90 1.55 c0.50 0.85 5.65 8.65 11.45 17.30 5.80 8.65 10.65 15.90 10.70 16.15 0.10 0.20 -4.30 0.35 -9.80 0.35 l-10 0 -7.05 -10.75 c-3.90 -5.90 -7.25 -10.75 -7.45 -10.75 -0.20 0 -3.15 4.85 -6.55 10.75 l-6.20 10.75 -9.45 0 c-5.15 0 -9.40 -0.10 -9.40 -0.20z"/>
  <path d="M475.70 121.55 c-0.10 -0.10 -0.20 -3.15 -0.20 -6.70 0 -6.45 0 -6.45 1.35 -7.55 3.20 -2.45 15.25 -12.80 19.75 -16.90 15.70 -14.35 21.50 -23.35 21.55 -33.40 0 -3.60 -0.20 -4.70 -1.35 -7.10 -1.60 -3.40 -3.05 -4.65 -6.45 -5.65 -8.85 -2.65 -15.80 2 -17.45 11.65 l-0.60 3.55 -8.45 -0.10 -8.45 -0.10 0.35 -3.50 c0.35 -4.10 1.90 -9.55 3.55 -12.80 1.75 -3.55 7.40 -9.05 11.20 -10.95 9.35 -4.75 21.70 -4.75 32 -0.10 5.45 2.45 10.60 8.95 12.55 15.85 0.40 1.50 0.70 4.85 0.70 8.50 0 9.10 -1.75 14.40 -7.70 23.15 -5 7.30 -11.80 14.40 -23.45 24.25 l-3.65 3.10 18.55 0.25 c10.15 0.15 18.50 0.40 18.50 0.65 0 0.20 0 3.45 0 7.25 l0 6.85 -31.05 0 c-17.05 0 -31.15 -0.10 -31.25 -0.20z"/>
  <path d="M642.75 43.60 c-2.10 -0.70 -4.15 -2.30 -5.40 -4.25 -5.20 -8 2.15 -17.60 11.85 -15.40 9.40 2.10 11.15 14.55 2.60 18.80 -2.50 1.25 -6.60 1.60 -9.05 0.85z"/>
 </g>
 <g fill="#147dc7">
  <path d="M47.30 147.65 c-0.75 -0.15 -2.50 -0.90 -3.80 -1.70 -2.65 -1.65 -4.10 -4 -4.90 -7.95 -0.70 -3.65 -0.40 -81.25 0.40 -84.40 0.45 -1.95 1.15 -3.15 2.75 -4.75 3.55 -3.60 3.70 -3.60 28 -3.60 11.85 0 21.75 -0.15 22.05 -0.35 0.30 -0.20 1.20 -1.30 2 -2.50 3.20 -4.80 6.30 -8.65 7.60 -9.50 1.25 -0.80 2.95 -0.90 20.60 -0.90 14.35 0 19.55 0.15 20.50 0.65 0.65 0.35 2.95 3.15 5.10 6.30 2.15 3.15 4 5.80 4.15 5.95 0.10 0.15 10 0.20 21.90 0.15 22.60 -0.10 24.40 0 28.70 2.10 1.70 0.80 2.40 1.60 3.75 4.25 l1.65 3.30 0.15 40 c0.10 27.60 -0.05 41 -0.40 43.05 -0.80 4.25 -2.85 7.35 -5.85 8.80 l-2.40 1.20 -75.25 0.05 c-41.40 0.05 -75.90 -0.05 -76.70 -0.15z m84.70 -18.25 c4.60 -1.45 7.75 -3.10 11.60 -6.25 5.45 -4.45 8.55 -8.90 10.95 -15.90 1 -3 1.20 -4.45 1.20 -10 0 -7.25 -0.50 -9.40 -3.65 -15.50 -2.15 -4.25 -4.45 -7.10 -8.15 -10 -9.55 -7.50 -21.45 -9.75 -32.05 -6.05 -2.90 1 -8.60 4.05 -10.80 5.75 -4.05 3.15 -8.55 10.25 -10.65 16.80 -1.60 5.05 -1.60 13 0.05 18.25 3.60 11.30 11.25 19.30 21.95 22.75 6 1.95 13.50 2 19.55 0.15z m68.05 -69.95 c1.20 -0.85 1.45 -1.35 1.45 -3.10 0 -2.40 -0.20 -2.80 -2.15 -4 -4.15 -2.65 -8.60 3.45 -5.10 6.90 1.50 1.55 3.80 1.65 5.80 0.20z"/>
  <path d="M115.05 123.20 c-4.05 -1.10 -7.90 -3.50 -11.60 -7.20 -4.20 -4.25 -6.25 -8.30 -7.30 -14.35 -0.65 -3.95 -0.65 -4.95 0 -8.70 0.85 -5 2 -7.70 5 -11.75 4.95 -6.70 12.85 -10.70 21.15 -10.70 7.55 0 14 2.70 19.20 7.95 3.90 3.90 6.20 8.10 7.25 13 2.05 9.80 -0.25 17.65 -7.20 24.60 -5.85 5.85 -11 8 -19.30 7.90 -2.45 0 -5.70 -0.35 -7.20 -0.75z"/>
 </g>
</svg>